<svg width="187" height="51" viewBox="0 0 187 51" fill="none" xmlns="http://www.w3.org/2000/svg">
<path d="M39.7719 12.8454C40.9881 11.6262 41.7406 9.94383 41.7406 8.0851C41.7406 4.36264 38.7226 1.3447 35.0001 1.3447C32.6467 1.3447 30.5777 2.55287 29.372 4.38062C29.0517 4.7014 2.21949 37.7729 1.96866 38.1531C0.752489 39.3723 0 41.0551 0 42.9129C0 46.6358 3.01794 49.6538 6.7404 49.6538C9.0938 49.6538 11.1629 48.4461 12.3686 46.6178C12.6889 46.2971 39.5211 13.2251 39.7719 12.8454Z" fill="white"/>
<path d="M55.2974 28.5393C56.5171 27.3192 57.271 25.6348 57.271 23.7736C57.271 20.0511 54.2531 17.0332 50.5306 17.0332C48.1762 17.0332 46.1061 18.2423 44.9005 20.0716C44.5777 20.3949 30.4848 37.7665 30.2325 38.1493C29.0128 39.3695 28.2588 41.0538 28.2588 42.9145C28.2588 46.6375 31.2767 49.6555 34.9992 49.6555C37.3536 49.6555 39.4237 48.4463 40.6289 46.617C40.9517 46.2942 55.0451 28.9221 55.2974 28.5393Z" fill="white"/>
<path d="M70.0002 8.0851C70.0002 11.8081 66.9822 14.8255 63.2598 14.8255C59.5368 14.8255 56.5193 11.8081 56.5193 8.0851C56.5193 4.36264 59.5368 1.3447 63.2598 1.3447C66.9822 1.3447 70.0002 4.36264 70.0002 8.0851Z" fill="white"/>
<path d="M13.4808 8.0851C13.4808 11.8081 10.4629 14.8255 6.7404 14.8255C3.01794 14.8255 0 11.8081 0 8.0851C0 4.36264 3.01794 1.3447 6.7404 1.3447C10.4629 1.3447 13.4808 4.36264 13.4808 8.0851Z" fill="white"/>
<path d="M100.92 12.7C103.293 12.7 105.347 13.1533 107.08 14.06C108.813 14.94 110.28 16.2467 111.48 17.98L108.6 20.74C107.587 19.1933 106.44 18.0867 105.16 17.42C103.907 16.7267 102.413 16.38 100.68 16.38C99.4001 16.38 98.3468 16.5533 97.5201 16.9C96.6935 17.2467 96.0801 17.7133 95.6801 18.3C95.3068 18.86 95.1201 19.5 95.1201 20.22C95.1201 21.0467 95.4001 21.7667 95.9601 22.38C96.5468 22.9933 97.6268 23.4733 99.2001 23.82L104.56 25.02C107.12 25.58 108.933 26.4333 110 27.58C111.067 28.7267 111.6 30.18 111.6 31.94C111.6 33.5667 111.16 34.98 110.28 36.18C109.4 37.38 108.173 38.3 106.6 38.94C105.053 39.58 103.227 39.9 101.12 39.9C99.2535 39.9 97.5735 39.66 96.0801 39.18C94.5868 38.7 93.2801 38.0467 92.1601 37.22C91.0401 36.3933 90.1201 35.4467 89.4001 34.38L92.3601 31.42C92.9201 32.3533 93.6268 33.1933 94.4801 33.94C95.3335 34.66 96.3201 35.22 97.4401 35.62C98.5868 36.02 99.8535 36.22 101.24 36.22C102.467 36.22 103.52 36.0733 104.4 35.78C105.307 35.4867 105.987 35.06 106.44 34.5C106.92 33.9133 107.16 33.22 107.16 32.42C107.16 31.6467 106.893 30.9667 106.36 30.38C105.853 29.7933 104.893 29.34 103.48 29.02L97.6801 27.7C96.0801 27.3533 94.7601 26.86 93.7201 26.22C92.6801 25.58 91.9068 24.8067 91.4001 23.9C90.8935 22.9667 90.6401 21.9267 90.6401 20.78C90.6401 19.2867 91.0401 17.94 91.8401 16.74C92.6668 15.5133 93.8535 14.54 95.4001 13.82C96.9468 13.0733 98.7868 12.7 100.92 12.7ZM122.824 13.62V33.5C122.824 34.4867 123.078 35.2067 123.584 35.66C124.118 36.1133 124.824 36.34 125.704 36.34C126.424 36.34 127.051 36.2333 127.584 36.02C128.118 35.78 128.611 35.46 129.064 35.06L130.024 38.18C129.411 38.7133 128.651 39.14 127.744 39.46C126.864 39.7533 125.878 39.9 124.784 39.9C123.638 39.9 122.584 39.7133 121.624 39.34C120.664 38.9667 119.918 38.3667 119.384 37.54C118.851 36.6867 118.571 35.58 118.544 34.22V14.82L122.824 13.62ZM129.704 19.5V22.86H114.704V19.5H129.704ZM145.614 26.66C145.614 25.3267 145.241 24.3 144.494 23.58C143.774 22.8333 142.774 22.46 141.494 22.46C140.294 22.46 139.268 22.74 138.414 23.3C137.561 23.86 136.934 24.7667 136.534 26.02L132.934 24.5C133.441 22.8733 134.428 21.5667 135.894 20.58C137.388 19.5933 139.308 19.1 141.654 19.1C143.254 19.1 144.668 19.3667 145.894 19.9C147.121 20.4067 148.081 21.18 148.774 22.22C149.494 23.26 149.854 24.5933 149.854 26.22V35.14C149.854 36.1267 150.348 36.62 151.334 36.62C151.814 36.62 152.281 36.5533 152.734 36.42L152.494 39.38C151.881 39.6733 151.108 39.82 150.174 39.82C149.321 39.82 148.548 39.6733 147.854 39.38C147.188 39.06 146.654 38.5933 146.254 37.98C145.881 37.34 145.694 36.5533 145.694 35.62V35.34L146.574 35.3C146.334 36.34 145.841 37.2067 145.094 37.9C144.348 38.5667 143.481 39.0733 142.494 39.42C141.508 39.74 140.508 39.9 139.494 39.9C138.241 39.9 137.108 39.7 136.094 39.3C135.108 38.9 134.321 38.3 133.734 37.5C133.174 36.6733 132.894 35.66 132.894 34.46C132.894 32.9667 133.374 31.74 134.334 30.78C135.321 29.82 136.708 29.1667 138.494 28.82L146.254 27.3L146.214 30.3L140.574 31.46C139.454 31.6733 138.614 31.98 138.054 32.38C137.494 32.78 137.214 33.3667 137.214 34.14C137.214 34.8867 137.494 35.4867 138.054 35.94C138.641 36.3667 139.414 36.58 140.374 36.58C141.041 36.58 141.681 36.5 142.294 36.34C142.934 36.18 143.508 35.9267 144.014 35.58C144.521 35.2067 144.908 34.74 145.174 34.18C145.468 33.5933 145.614 32.9 145.614 32.1V26.66ZM156.867 39.5V19.5H160.507L160.907 23.1C161.44 21.7933 162.227 20.8067 163.267 20.14C164.334 19.4467 165.64 19.1 167.187 19.1C167.587 19.1 167.987 19.14 168.387 19.22C168.787 19.2733 169.12 19.3667 169.387 19.5L168.787 23.26C168.494 23.1533 168.16 23.0733 167.787 23.02C167.44 22.94 166.96 22.9 166.347 22.9C165.52 22.9 164.707 23.1267 163.907 23.58C163.107 24.0067 162.44 24.66 161.907 25.54C161.4 26.42 161.147 27.54 161.147 28.9V39.5H156.867ZM178.293 13.62V33.5C178.293 34.4867 178.546 35.2067 179.053 35.66C179.586 36.1133 180.293 36.34 181.173 36.34C181.893 36.34 182.52 36.2333 183.053 36.02C183.586 35.78 184.08 35.46 184.533 35.06L185.493 38.18C184.88 38.7133 184.12 39.14 183.213 39.46C182.333 39.7533 181.346 39.9 180.253 39.9C179.106 39.9 178.053 39.7133 177.093 39.34C176.133 38.9667 175.386 38.3667 174.853 37.54C174.32 36.6867 174.04 35.58 174.013 34.22V14.82L178.293 13.62ZM185.173 19.5V22.86H170.173V19.5H185.173Z" fill="white"/>
</svg>
